<?xml version="1.0" standalone="no"?>
<!DOCTYPE svg PUBLIC "-//W3C//DTD SVG 20010904//EN"
 "http://www.w3.org/TR/2001/REC-SVG-20010904/DTD/svg10.dtd">
<svg version="1.0" xmlns="http://www.w3.org/2000/svg"
 width="600.000000pt" height="525.000000pt" viewBox="0 0 600.000000 525.000000"
 preserveAspectRatio="xMidYMid meet">
<metadata>
Created by potrace 1.16, written by Peter Selinger 2001-2019
</metadata>
<g transform="translate(0.000000,525.000000) scale(0.100000,-0.100000)"
fill="#000000" stroke="none">
<path d="M0 2625 l0 -2625 3000 0 3000 0 0 2625 0 2625 -3000 0 -3000 0 0
-2625z m2090 2065 c5 -69 14 -217 20 -330 14 -273 17 -300 42 -341 l21 -34 8
27 c7 25 0 222 -17 477 -5 69 -4 102 3 98 6 -4 13 -24 16 -44 9 -51 51 -599
50 -643 -1 -57 16 -605 23 -733 6 -107 9 -122 32 -148 29 -35 202 -152 211
-143 3 3 11 33 16 67 9 52 14 63 40 78 17 9 29 21 28 26 -9 44 -23 727 -16
734 16 16 22 -70 29 -419 6 -267 10 -324 22 -335 22 -18 377 -24 398 -6 13 11
15 53 13 331 -2 174 0 321 4 324 7 7 12 -383 7 -539 -1 -50 2 -83 10 -92 10
-12 49 -15 219 -15 113 0 212 4 220 9 12 8 13 79 8 473 -4 254 -10 482 -13
505 -5 34 -3 44 10 49 25 9 52 -4 38 -18 -14 -14 -15 -394 -3 -766 6 -184 11
-236 22 -243 8 -6 184 -9 441 -7 336 2 430 6 440 16 22 23 6 946 -17 1005 -7
16 -3 18 20 15 l28 -3 -2 -95 c-2 -127 17 -822 25 -882 l6 -48 191 0 c106 0
208 -3 227 -6 l35 -6 -3 -103 c-3 -62 0 -110 7 -123 14 -26 140 -50 177 -34
19 9 24 8 27 -6 2 -9 4 -240 4 -512 l1 -495 -10 480 c-7 345 -13 482 -21 488
-15 10 -163 5 -174 -6 -4 -5 -6 -293 -3 -640 7 -937 4 -1226 -13 -1243 -3 -4
-13 -1 -22 6 -11 9 -12 17 -3 33 8 15 9 139 4 436 -14 923 -26 1395 -36 1405
-15 15 -352 8 -363 -7 -4 -7 -6 -127 -4 -267 3 -277 6 -294 61 -341 l30 -27
-37 -15 -37 -16 -2 -133 c0 -73 0 -181 1 -239 2 -60 -1 -109 -7 -112 -5 -4
-12 86 -16 236 -3 133 -10 267 -15 297 -5 32 -4 66 1 82 14 39 6 524 -8 538
-18 18 -1038 0 -1056 -18 -10 -10 -13 -115 -12 -510 1 -546 0 -542 -16 78 -10
346 -14 428 -26 440 -11 11 -43 16 -123 18 -99 3 -110 2 -114 -15 -3 -10 -8
-81 -11 -158 -25 -577 -39 -821 -49 -833 -8 -10 -25 -12 -66 -6 -31 4 -159 6
-285 5 l-229 -3 7 318 c8 342 7 684 0 696 -6 10 -189 9 -224 -1 -23 -6 -25
-12 -24 -57 21 -1053 24 -1308 16 -1316 -12 -12 -19 79 -32 412 -18 437 -41
883 -48 920 -6 25 -14 36 -32 41 -32 9 -204 11 -252 3 l-38 -7 -2 -306 -1
-306 -9 300 c-5 165 -13 304 -18 309 -15 15 -243 20 -269 6 l-23 -12 6 -326
c3 -180 10 -610 15 -957 l9 -630 -27 -28 -26 -29 -11 49 c-9 41 -13 48 -34 48
-30 0 -50 -35 -50 -87 0 -41 -14 -57 -26 -30 -4 9 -8 85 -9 167 -2 83 -8 290
-14 460 -6 171 -12 370 -13 444 -3 154 2 163 88 175 78 10 84 21 83 150 0 158
-24 570 -33 584 -8 13 -249 18 -293 6 l-21 -6 4 -436 c4 -497 21 -1105 35
-1297 5 -71 9 -162 9 -200 0 -80 17 -115 56 -115 13 0 24 -4 24 -10 0 -5 -13
-10 -30 -10 -31 0 -75 -34 -65 -50 3 -5 22 -12 41 -16 47 -9 98 15 119 56 15
30 16 30 101 30 73 0 91 -3 117 -22 29 -21 41 -22 175 -20 138 2 243 19 377
62 56 18 238 40 329 40 105 1 129 12 124 57 -4 33 -5 33 -128 4 -47 -11 -110
-21 -141 -21 -64 0 -69 5 -69 72 l0 41 21 -28 c19 -23 27 -26 58 -21 20 4 84
10 142 15 59 5 116 14 128 21 17 8 31 9 53 1 17 -6 54 -12 82 -12 l51 -2 -40
-6 c-50 -8 -65 -17 -65 -40 0 -23 19 -41 45 -41 11 0 32 -8 45 -17 23 -16 69
-27 168 -40 31 -4 48 -1 61 11 11 10 50 19 109 25 51 6 96 12 101 15 16 11 39
-5 51 -35 15 -36 30 -38 30 -4 0 30 13 32 47 5 14 -11 29 -20 33 -20 12 0 30
50 31 88 1 20 4 48 9 62 8 27 6 32 28 -94 9 -47 24 -56 40 -22 14 30 60 41
140 33 53 -6 74 -18 85 -50 2 -6 9 -7 15 -3 8 5 12 36 12 86 0 86 12 107 41
71 10 -11 19 -26 21 -33 3 -7 42 -11 122 -11 l118 1 37 38 c21 22 41 53 44 69
3 17 12 68 21 115 22 116 21 161 -5 194 -12 16 -18 33 -14 45 4 13 -1 24 -14
33 -18 13 -19 17 -6 35 8 11 12 22 10 25 -2 2 -7 45 -10 95 -4 75 -2 92 10 97
21 8 19 23 -5 29 -26 7 -26 33 0 47 17 9 18 14 8 36 -11 23 -9 28 10 43 22 16
22 16 2 33 -11 10 -17 24 -14 31 7 20 55 40 66 29 5 -5 8 -56 7 -113 -4 -162
-2 -349 6 -408 10 -73 -11 -263 -41 -369 -13 -48 -24 -90 -24 -94 0 -5 50 -8
110 -8 89 0 110 3 110 14 0 25 19 28 48 6 15 -11 41 -22 57 -23 26 -2 30 2 33
26 4 35 31 49 90 45 46 -3 47 -4 50 -38 1 -19 5 -50 8 -69 l5 -33 162 7 162 7
37 35 c33 32 41 35 75 30 30 -5 42 -2 60 15 l23 21 24 -22 c14 -13 47 -34 75
-46 104 -48 212 -144 262 -230 78 -135 18 -160 -441 -190 -370 -23 -2650 -39
-3790 -27 l-615 7 -49 25 c-39 20 -52 33 -64 65 -27 74 -21 93 50 160 73 67
154 113 170 97 7 -7 6 -21 -1 -45 -9 -25 -9 -51 -3 -89 8 -39 7 -59 -3 -78
-19 -39 -9 -50 45 -50 58 0 82 20 56 48 -9 10 -16 31 -16 47 0 25 2 27 30 22
16 -4 59 -9 94 -13 76 -8 86 1 66 61 -15 45 -35 55 -107 55 -65 0 -89 10 -80
34 7 18 31 16 105 -11 73 -26 72 -28 72 184 0 103 -5 287 -10 408 -25 599 -25
580 -3 602 11 11 38 24 59 27 71 14 74 21 74 185 0 80 -3 251 -7 380 l-6 234
-156 -5 c-96 -3 -165 -9 -179 -17 l-23 -12 2 -260 c0 -143 -2 -263 -5 -266 -3
-4 -6 68 -7 158 -1 90 -4 223 -8 294 -4 72 -5 136 -3 143 2 6 16 12 31 12 34
0 97 37 416 247 226 148 360 230 546 336 l46 26 -5 235 c-3 152 -1 236 5 236
14 0 23 -110 23 -292 0 -154 0 -157 26 -187 39 -47 264 -213 283 -209 19 4 19
35 -4 328 -8 102 -19 271 -25 375 -6 105 -15 240 -20 300 -12 126 -26 348 -36
550 -8 179 12 175 26 -5z m940 -566 l0 -287 -100 7 c-106 7 -178 24 -110 25
20 1 41 6 47 12 8 8 22 8 49 0 55 -15 91 -14 98 5 3 9 6 130 6 270 0 140 2
254 5 254 3 0 5 -129 5 -286z m-457 12 c1 -80 -2 -133 -8 -136 -6 -3 -11 57
-12 170 -1 126 1 164 8 136 5 -22 10 -98 12 -170z m1519 -73 c-95 -2 -248 -2
-340 0 -92 1 -14 3 173 3 187 0 262 -2 167 -3z m-1512 -174 c0 -5 -4 -9 -10
-9 -5 0 -10 7 -10 16 0 8 5 12 10 9 6 -3 10 -10 10 -16z m1377 -281 c-2 -13
-4 -5 -4 17 -1 22 1 32 4 23 2 -10 2 -28 0 -40z m105 -115 c40 -45 58 -76 58
-103 0 -22 -4 -20 -46 28 -35 40 -52 52 -75 52 -32 0 -34 3 -19 31 15 27 52
24 82 -8z m226 -1365 c22 -22 14 -45 -19 -52 -39 -7 -202 -8 -222 0 -9 3 -12
14 -9 29 4 24 7 24 116 28 61 1 113 4 117 5 3 1 10 -3 17 -10z m-514 -47 c3
-4 -1 -17 -9 -27 -14 -18 -14 -18 -15 9 0 26 13 36 24 18z m-1900 -353 c4
-161 9 -440 11 -620 2 -211 8 -334 15 -347 11 -22 3 -48 -22 -68 -7 -6 -38
-14 -69 -18 -85 -11 -89 -3 -89 158 0 139 15 407 26 464 5 29 9 32 30 27 13
-3 36 -3 51 0 22 6 24 9 12 21 -8 8 -32 21 -54 28 -38 13 -40 17 -46 63 -11
91 -20 529 -10 543 7 11 89 37 127 40 8 1 13 -86 18 -291z m-1067 65 c-1 -43
-3 -10 -3 72 0 83 2 118 3 78 2 -40 2 -107 0 -150z m2960 -200 c-3 -10 -5 -2
-5 17 0 19 2 27 5 18 2 -10 2 -26 0 -35z m843 -86 c0 -20 -1 -20 -16 -5 -9 9
-13 21 -9 27 10 16 25 3 25 -22z m-833 -212 c0 -30 -4 -55 -8 -55 -10 0 -12
70 -3 94 10 25 11 20 11 -39z m816 39 c30 -9 19 -24 -17 -24 -39 0 -53 -14
-36 -35 6 -8 9 -19 5 -25 -7 -12 -35 -14 -36 -2 0 4 -2 25 -3 47 -2 22 -1 44
1 48 4 7 40 4 86 -9z m-1946 -186 c-2 -35 -3 -9 -3 57 0 66 1 94 3 63 2 -32 2
-86 0 -120z"/>
<path d="M2145 3930 c-7 -28 40 -786 50 -813 18 -47 25 -1 25 171 0 172 -10
384 -26 555 -4 42 -13 76 -24 90 l-18 22 -7 -25z"/>
<path d="M1686 3260 c-65 -38 -134 -83 -152 -100 -19 -16 -39 -30 -44 -30 -22
0 -261 -160 -309 -207 -13 -13 -29 -23 -36 -23 -16 0 -240 -154 -240 -165 0
-16 166 -17 210 -3 36 12 40 17 47 57 10 58 15 61 23 15 12 -70 2 -66 158 -62
78 1 148 7 155 11 9 6 12 48 12 154 0 81 3 144 6 140 4 -3 10 -65 15 -136 5
-72 14 -140 21 -152 13 -20 18 -21 137 -15 69 4 131 11 138 17 9 8 13 46 14
133 1 97 3 111 9 71 5 -27 9 -79 9 -115 1 -36 6 -72 11 -80 7 -12 37 -16 137
-18 75 -2 139 1 156 7 26 10 27 14 26 73 0 35 -4 99 -8 142 l-7 79 -53 48
c-98 91 -283 229 -305 229 -6 0 -64 -32 -130 -70z"/>
<path d="M2196 3003 c-8 -26 7 -118 19 -118 12 0 30 98 22 119 -8 21 -34 20
-41 -1z"/>
<path d="M3665 3000 c-275 -3 -506 -9 -512 -13 -9 -6 -13 -39 -13 -109 l0
-101 53 7 c28 3 415 6 859 6 l808 0 25 39 c23 33 26 47 23 107 l-3 69 -370 1
c-203 0 -595 -2 -870 -6z"/>
<path d="M2253 2896 c3 -53 11 -104 17 -112 15 -17 190 -20 220 -4 28 15 17
33 -63 97 -40 31 -82 67 -94 80 -12 13 -29 23 -37 23 -8 0 -22 3 -32 7 -16 6
-17 -1 -11 -91z"/>
<path d="M2690 2810 c-48 -48 0 -74 99 -54 38 8 40 26 5 53 -34 27 -78 27
-104 1z"/>
<path d="M4867 2784 c-13 -13 -7 -24 14 -24 11 0 19 5 17 12 -5 14 -22 21 -31
12z"/>
<path d="M2620 2720 c-12 -7 -12 -12 -2 -22 9 -9 15 -9 24 0 16 16 -2 34 -22
22z"/>
<path d="M2713 2713 c-37 -5 -42 -17 -13 -33 11 -6 20 -19 20 -29 0 -21 30
-51 52 -51 8 0 23 9 33 20 10 11 26 22 36 25 22 7 26 53 7 60 -24 7 -103 12
-135 8z"/>
<path d="M2718 2394 c-27 -5 -58 -32 -42 -36 5 -1 59 -2 119 -3 l110 0 -3
-160 c-4 -201 -7 -219 -35 -210 -44 14 -174 18 -195 6 -28 -15 -30 -71 -3 -95
26 -24 188 -63 209 -50 30 18 53 81 63 175 11 93 9 352 -2 363 -8 8 -186 16
-221 10z"/>
<path d="M2587 2383 c-12 -11 -8 -23 8 -23 8 0 15 7 15 15 0 16 -12 20 -23 8z"/>
<path d="M2795 1777 l-40 -22 34 -3 c37 -4 73 20 56 37 -6 6 -25 1 -50 -12z"/>
<path d="M3780 701 c0 -30 11 -51 25 -51 20 0 28 18 21 46 -8 30 -46 34 -46 5z"/>
<path d="M4547 713 c-13 -12 -7 -33 8 -33 8 0 15 9 15 20 0 20 -11 26 -23 13z"/>
<path d="M4077 694 c-16 -16 10 -24 81 -23 108 1 135 14 47 22 -88 9 -120 9
-128 1z"/>
<path d="M4517 533 c-4 -3 -7 -15 -7 -25 0 -21 25 -24 33 -4 6 16 -16 40 -26
29z"/>
<path d="M935 490 c-4 -6 12 -10 40 -10 28 0 44 4 40 10 -3 6 -21 10 -40 10
-19 0 -37 -4 -40 -10z"/>
</g>
</svg>
