<?xml version="1.0" standalone="no"?>
<!DOCTYPE svg PUBLIC "-//W3C//DTD SVG 20010904//EN"
 "http://www.w3.org/TR/2001/REC-SVG-20010904/DTD/svg10.dtd">
<svg version="1.0" xmlns="http://www.w3.org/2000/svg"
 width="600.000000pt" height="395.000000pt" viewBox="0 0 600.000000 395.000000"
 preserveAspectRatio="xMidYMid meet">
<metadata>
Created by potrace 1.16, written by Peter Selinger 2001-2019
</metadata>
<g transform="translate(0.000000,395.000000) scale(0.100000,-0.100000)"
fill="#000000" stroke="none">
<path d="M5248 3798 l-3 -63 -64 0 c-63 0 -66 -1 -89 -35 -23 -34 -25 -61 -7
-102 5 -13 1 -20 -15 -26 -20 -8 -17 -13 47 -63 37 -31 78 -61 90 -67 30 -16
40 2 13 25 -11 10 -20 22 -20 28 0 13 97 69 203 118 121 56 97 58 -46 3 -37
-14 -69 -26 -71 -26 -2 0 -7 61 -11 135 -8 141 -22 180 -27 73z m-34 -99 c14
-17 26 -41 26 -53 0 -33 -42 -91 -65 -91 -29 0 -32 50 -5 87 24 33 19 48 -16
48 -30 0 -31 14 -1 28 32 15 33 15 61 -19z"/>
<path d="M5720 3843 c0 -5 6 -15 13 -22 12 -12 1 -26 -43 -51 -26 -15 -5 -20
36 -8 53 16 66 27 62 57 -2 21 -9 27 -35 29 -18 2 -33 -1 -33 -5z"/>
<path d="M4868 3499 c-24 -13 -23 -29 1 -29 21 0 45 23 34 33 -8 9 -15 8 -35
-4z"/>
<path d="M5270 3405 c0 -8 5 -15 10 -15 6 0 10 7 10 15 0 8 -4 15 -10 15 -5 0
-10 -7 -10 -15z"/>
<path d="M4166 3379 c-30 -24 -37 -65 -8 -56 84 28 115 42 95 45 -12 2 -27 10
-33 18 -16 19 -22 18 -54 -7z"/>
<path d="M5262 3308 c-17 -17 -15 -38 3 -38 10 0 15 -10 15 -34 0 -19 5 -38
11 -41 7 -5 9 14 7 56 -3 63 -13 80 -36 57z"/>
<path d="M3990 3133 c0 -10 5 -25 10 -33 8 -12 10 -9 10 12 0 15 -4 30 -10 33
-5 3 -10 -2 -10 -12z"/>
<path d="M3372 3112 c-29 -22 -36 -24 -54 -13 -28 17 -36 6 -40 -59 l-3 -55
40 -5 c34 -4 40 -9 39 -27 -1 -26 0 -27 27 -13 10 6 19 20 19 30 0 11 5 20 10
20 6 0 10 -7 10 -15 0 -8 5 -15 10 -15 6 0 10 14 10 30 0 25 -4 30 -24 30 -32
0 -36 16 -18 68 8 24 13 45 11 46 -2 2 -19 -8 -37 -22z"/>
<path d="M4215 3100 c-8 -13 73 -50 123 -56 34 -4 35 -4 12 7 -14 6 -47 22
-73 35 -56 28 -54 27 -62 14z"/>
<path d="M2462 3028 c2 -18 8 -33 13 -33 6 0 11 15 13 33 3 24 -1 32 -13 32
-12 0 -16 -8 -13 -32z"/>
<path d="M4524 3008 c-8 -12 30 -48 51 -48 21 0 25 27 6 44 -21 19 -47 21 -57
4z"/>
<path d="M2376 2981 c-7 -11 50 -61 70 -61 21 0 2 32 -30 54 -29 19 -33 19
-40 7z"/>
<path d="M1806 2952 c-2 -4 -1 -14 4 -22 7 -11 12 -12 21 -3 6 6 8 16 5 22 -8
13 -23 14 -30 3z"/>
<path d="M2005 2928 c-7 -18 9 -74 21 -70 14 3 11 75 -3 79 -7 3 -15 -1 -18
-9z"/>
<path d="M4177 2653 c-15 -14 -6 -41 18 -57 31 -20 32 -33 4 -41 -19 -6 -20
-12 -15 -48 4 -23 13 -48 21 -57 7 -8 25 -35 39 -60 30 -53 34 -34 6 29 -23
49 -26 109 -8 159 12 32 11 35 -15 58 -29 25 -39 28 -50 17z"/>
<path d="M3442 2463 c2 -9 9 -18 16 -21 18 -6 15 25 -4 32 -11 4 -14 1 -12
-11z"/>
<path d="M4696 2372 c-3 -4 -2 -43 1 -85 l6 -77 44 0 c40 0 44 -2 38 -20 -4
-11 1 -34 9 -52 19 -37 14 -42 -51 -60 -47 -13 -57 -28 -19 -28 14 0 28 -4 31
-10 10 -16 34 -12 52 10 10 11 25 20 35 20 20 0 24 15 7 26 -17 10 10 24 48
24 17 0 35 5 39 12 10 16 -25 38 -63 38 -36 0 -54 23 -34 43 6 6 11 14 11 18
0 12 -33 16 -58 7 -48 -17 -91 32 -73 83 10 30 6 59 -9 59 -5 0 -11 -4 -14 -8z"/>
<path d="M4990 2320 c0 -11 6 -20 14 -20 24 0 28 18 6 30 -17 9 -20 8 -20 -10z"/>
<path d="M5101 2303 c-44 -46 -93 -175 -73 -195 9 -9 18 -9 37 0 27 13 32 40
13 71 -10 16 -7 26 16 59 15 22 38 50 51 62 24 22 25 40 3 40 -6 0 -27 -17
-47 -37z"/>
<path d="M4970 2245 c0 -8 5 -15 10 -15 6 0 10 7 10 15 0 8 -4 15 -10 15 -5 0
-10 -7 -10 -15z"/>
<path d="M1377 2074 c-8 -8 1 -24 13 -24 4 0 10 7 14 15 5 15 -14 21 -27 9z"/>
<path d="M4601 2067 c-14 -6 -28 -25 -32 -41 -5 -16 -24 -46 -44 -66 -19 -20
-33 -39 -29 -42 3 -4 21 -4 40 -1 25 4 40 1 54 -12 18 -17 21 -16 52 2 42 24
46 57 16 123 -12 27 -25 50 -28 50 -3 0 -16 -6 -29 -13z m29 -97 c0 -16 -18
-30 -41 -30 -16 0 -10 39 8 49 22 12 33 5 33 -19z"/>
<path d="M1530 2027 c0 -18 -5 -38 -12 -45 -9 -9 -9 -12 0 -12 14 0 32 41 32
71 0 10 -4 19 -10 19 -5 0 -10 -15 -10 -33z"/>
<path d="M3945 2013 c5 -54 16 -70 35 -48 16 19 49 19 56 0 8 -19 -12 -44 -43
-56 -13 -5 -26 -17 -30 -26 -11 -31 -35 -53 -60 -53 -36 0 -27 -24 17 -49 53
-29 82 -25 91 14 4 17 14 49 23 72 9 23 17 61 18 85 3 38 0 44 -27 57 -16 8
-36 23 -43 33 -25 34 -41 22 -37 -29z"/>
<path d="M4105 2016 c-33 -24 -12 -44 50 -48 62 -3 81 8 70 42 -5 16 -15 20
-54 20 -26 0 -56 -6 -66 -14z"/>
<path d="M4838 1988 l-3 -43 -14 28 c-18 34 -24 34 -38 -3 -10 -27 -15 -29
-42 -24 -29 6 -31 5 -31 -25 0 -32 8 -39 26 -21 5 5 34 14 64 20 30 6 58 16
62 23 15 24 6 87 -12 87 -5 0 -10 -19 -12 -42z"/>
<path d="M3903 1994 c-7 -12 -8 -26 -3 -34 7 -12 10 -12 15 2 4 9 5 25 3 35
-4 17 -5 16 -15 -3z"/>
<path d="M5105 1984 l-30 -14 44 3 c25 1 46 8 49 15 5 16 -25 14 -63 -4z"/>
<path d="M4099 1859 c-9 -18 -7 -27 10 -50 33 -44 27 -55 -33 -70 -19 -5 -4
-6 39 -3 l70 5 53 -46 c35 -31 52 -54 52 -70 0 -13 5 -27 10 -30 6 -3 10 -1
10 4 0 17 32 13 65 -9 28 -19 65 -27 65 -14 0 18 -67 95 -87 99 -13 3 -34 7
-48 10 -36 8 -32 34 6 42 23 4 35 14 43 35 12 33 17 34 41 8 26 -29 35 -25 35
15 l0 35 -88 0 c-63 0 -94 4 -110 15 -16 12 -102 44 -119 45 -1 0 -7 -10 -14
-21z"/>
<path d="M4598 1823 c-1 -21 -2 -52 -2 -70 -1 -17 -4 -35 -8 -39 -15 -14 -8
-24 17 -24 27 0 32 9 13 28 -9 9 -7 17 10 35 20 21 20 25 8 62 -18 53 -35 56
-38 8z"/>
<path d="M4910 1795 c-16 -29 -7 -43 15 -25 16 13 21 50 7 50 -5 0 -15 -11
-22 -25z"/>
<path d="M4484 1754 c3 -9 6 -25 7 -37 0 -21 1 -21 10 2 11 28 5 51 -12 51 -6
0 -8 -7 -5 -16z"/>
<path d="M4707 1750 c-3 -8 -8 -23 -11 -33 -3 -11 -15 -21 -26 -24 -22 -6 -27
-28 -8 -39 6 -4 16 0 23 9 7 10 22 17 34 17 25 0 29 35 7 66 -12 16 -15 16
-19 4z"/>
<path d="M4822 1723 c-18 -7 4 -33 29 -33 24 0 35 20 18 31 -15 10 -27 10 -47
2z"/>
<path d="M4968 1684 c18 -12 20 -19 11 -35 -16 -30 0 -38 22 -10 25 31 24 47
-3 55 -42 11 -54 7 -30 -10z"/>
<path d="M3440 1664 c0 -8 5 -12 10 -9 6 3 10 10 10 16 0 5 -4 9 -10 9 -5 0
-10 -7 -10 -16z"/>
<path d="M4800 1645 c0 -9 60 -35 82 -35 l23 1 -25 13 c-28 15 -80 29 -80 21z"/>
<path d="M5091 1580 c-10 -18 -36 -44 -57 -58 l-39 -27 75 -6 c41 -3 73 -7 70
-8 -3 -1 -32 -10 -65 -19 -71 -20 -70 -37 2 -37 40 0 55 -5 67 -20 14 -19 15
-16 16 37 0 47 4 59 20 68 11 6 20 14 20 18 0 4 -20 25 -45 45 l-45 38 -19
-31z"/>
<path d="M4810 1580 c0 -5 7 -10 16 -10 8 0 12 5 9 10 -3 6 -10 10 -16 10 -5
0 -9 -4 -9 -10z"/>
<path d="M5456 1531 c-4 -5 -2 -20 2 -32 l9 -23 12 21 c6 12 11 26 11 32 0 13
-27 15 -34 2z"/>
<path d="M4400 1475 c0 -28 15 -34 24 -9 10 25 7 34 -9 34 -9 0 -15 -9 -15
-25z"/>
<path d="M4606 1491 c-7 -11 31 -43 74 -61 28 -12 37 -11 76 8 50 25 57 42 17
42 -59 1 -129 8 -144 15 -10 3 -20 2 -23 -4z"/>
<path d="M5530 1400 c0 -13 18 -22 24 -11 3 5 -1 11 -9 15 -8 3 -15 1 -15 -4z"/>
<path d="M4793 1384 c-9 -23 11 -38 26 -20 13 16 7 36 -10 36 -5 0 -12 -7 -16
-16z"/>
<path d="M1246 1325 c-8 -23 -8 -35 3 -35 13 0 23 32 13 42 -6 6 -12 3 -16 -7z"/>
<path d="M5103 1279 c-39 -11 -49 -25 -32 -45 9 -11 8 -18 -5 -33 -15 -17 -15
-19 0 -31 16 -14 15 -45 -1 -82 -12 -30 11 -20 54 23 22 23 41 50 41 60 0 13
9 19 32 21 46 4 47 26 1 30 -31 2 -39 7 -41 26 -2 12 1 22 7 22 6 0 11 5 11
10 0 12 -23 12 -67 -1z"/>
<path d="M3775 1223 c-40 -10 -41 -24 -1 -21 22 2 41 9 44 16 4 12 -7 14 -43
5z"/>
<path d="M4976 1214 c-9 -23 -7 -54 2 -54 14 0 42 35 42 53 0 22 -36 22 -44 1z"/>
<path d="M5475 1160 c3 -5 10 -10 16 -10 5 0 9 5 9 10 0 6 -7 10 -16 10 -8 0
-12 -4 -9 -10z"/>
<path d="M5391 1120 l1 -45 11 33 c7 24 7 36 -1 44 -9 9 -12 1 -11 -32z"/>
<path d="M1510 1134 c0 -9 5 -14 12 -12 18 6 21 28 4 28 -9 0 -16 -7 -16 -16z"/>
<path d="M5245 1097 c-4 -10 -5 -21 -1 -24 10 -10 18 4 13 24 -4 17 -4 17 -12
0z"/>
<path d="M1220 1040 c0 -5 7 -10 15 -10 8 0 15 5 15 10 0 6 -7 10 -15 10 -8 0
-15 -4 -15 -10z"/>
<path d="M5077 993 c-3 -23 1 -47 9 -60 8 -12 14 -43 14 -68 0 -36 -5 -51 -26
-70 -23 -21 -24 -24 -9 -37 9 -7 25 -21 36 -30 10 -10 21 -18 24 -18 3 0 24
18 46 41 52 53 73 49 77 -14 2 -32 7 -47 15 -44 15 5 13 107 -3 136 -7 15 -7
33 1 66 15 60 7 78 -30 70 -20 -4 -34 -1 -45 11 -16 15 -18 15 -35 0 -16 -15
-18 -13 -34 19 -21 45 -34 44 -40 -2z m153 -143 c0 -19 -5 -30 -14 -30 -17 0
-28 24 -20 45 11 27 34 17 34 -15z"/>
<path d="M4966 874 c-8 -22 4 -40 15 -23 11 18 11 39 0 39 -5 0 -12 -7 -15
-16z"/>
<path d="M5486 874 c-9 -23 -7 -97 3 -113 10 -15 13 -7 26 56 10 52 -13 99
-29 57z"/>
<path d="M5400 786 c0 -8 5 -18 10 -21 6 -3 10 3 10 14 0 12 -4 21 -10 21 -5
0 -10 -6 -10 -14z"/>
<path d="M4700 745 c-7 -9 -10 -18 -7 -21 10 -11 37 5 37 21 0 19 -14 19 -30
0z"/>
<path d="M4976 723 c-14 -15 -4 -33 19 -33 17 0 23 4 19 14 -6 16 -29 28 -38
19z"/>
<path d="M5180 629 c0 -5 4 -9 9 -9 5 0 17 -3 27 -7 11 -4 15 -3 11 4 -9 14
-47 24 -47 12z"/>
<path d="M3914 469 c-13 -22 12 -30 31 -9 18 19 18 20 -3 20 -11 0 -24 -5 -28
-11z"/>
<path d="M4535 139 c-5 -7 5 -8 32 -3 51 9 54 14 10 14 -20 0 -39 -5 -42 -11z"/>
<path d="M5675 130 c3 -5 12 -10 20 -10 8 0 17 5 20 10 4 6 -5 10 -20 10 -15
0 -24 -4 -20 -10z"/>
</g>
</svg>
